<?xml version="1.0" encoding="UTF-8"?>
<svg id="Camada_1" xmlns="http://www.w3.org/2000/svg" version="1.1" viewBox="0 0 682.25 500">
  <!-- Generator: Adobe Illustrator 29.4.0, SVG Export Plug-In . SVG Version: 2.1.0 Build 152)  -->
  <g>
    <rect x="7.26" y="440.38" width="307.59" height="52.08" fill="#bc9576"/>
    <rect x="47.88" y="343.58" width="266.98" height="52.08" fill="#bc9576"/>
    <rect x="158.82" y="7.51" width="54.27" height="300.96" fill="#bc9576"/>
    <rect x="259.69" y="7.51" width="54.27" height="300.96" fill="#bc9576"/>
  </g>
  <path d="M354.01,7.49h126.56c47.94,0,80.54,7.67,109.31,28.13,30.04,21.73,52.41,56.89,52.41,106.11,0,45.39-24.29,77.99-60.73,95.89v1.28c60.09,8.94,94.6,58.16,94.6,116.97,0,79.26-64.56,137.43-146.38,137.43h-175.78V7.49ZM492.07,219.06c49.86,0,88.85-28.76,88.85-76.06,0-24.93-8.95-45.38-24.29-59.44-15.98-14.71-40.91-22.38-76.71-22.38h-64.56v157.88h76.7ZM508.7,439.59c82.46,0,106.11-38.99,106.11-83.1,0-38.35-23.65-83.74-106.11-83.74h-93.32v166.83h93.32Z" fill="#0c1f40"/>
</svg>